<mxfile host="Electron" modified="2023-09-14T08:22:41.964Z" agent="Mozilla/5.0 (Windows NT 10.0; Win64; x64) AppleWebKit/537.36 (KHTML, like Gecko) draw.io/21.6.8 Chrome/114.0.5735.289 Electron/25.5.0 Safari/537.36" etag="5HXVzXuXdnf5Q-TPXlQl" version="21.6.8" type="device">
  <diagram name="Страница 1" id="y_ok42APlwmz7dY6Vjd9">
    <mxGraphModel dx="417" dy="504" grid="1" gridSize="10" guides="1" tooltips="1" connect="1" arrows="1" fold="1" page="1" pageScale="1" pageWidth="827" pageHeight="1169" math="0" shadow="0">
      <root>
        <mxCell id="0" />
        <mxCell id="1" parent="0" />
        <mxCell id="G0P9026Q1GZ-u4EoMVOc-1" value="Клиент" style="shape=umlActor;verticalLabelPosition=bottom;verticalAlign=top;html=1;outlineConnect=0;" parent="1" vertex="1">
          <mxGeometry x="399" y="10" width="30" height="60" as="geometry" />
        </mxCell>
        <mxCell id="G0P9026Q1GZ-u4EoMVOc-2" value="Сотрудник" style="shape=umlActor;verticalLabelPosition=bottom;verticalAlign=top;html=1;outlineConnect=0;" parent="1" vertex="1">
          <mxGeometry x="399" y="350" width="30" height="60" as="geometry" />
        </mxCell>
        <mxCell id="G0P9026Q1GZ-u4EoMVOc-3" value="Информационная система" style="shape=umlActor;verticalLabelPosition=bottom;verticalAlign=top;html=1;outlineConnect=0;" parent="1" vertex="1">
          <mxGeometry x="399" y="650" width="30" height="60" as="geometry" />
        </mxCell>
        <mxCell id="G0P9026Q1GZ-u4EoMVOc-4" value="отменить заказ" style="ellipse;whiteSpace=wrap;html=1;" parent="1" vertex="1">
          <mxGeometry x="190" y="330" width="120" height="80" as="geometry" />
        </mxCell>
        <mxCell id="G0P9026Q1GZ-u4EoMVOc-5" value="сделать заказ" style="ellipse;whiteSpace=wrap;html=1;" parent="1" vertex="1">
          <mxGeometry x="354" y="200" width="120" height="80" as="geometry" />
        </mxCell>
        <mxCell id="G0P9026Q1GZ-u4EoMVOc-6" value="предоставить&lt;br&gt;информацию&lt;br&gt;о ценах" style="ellipse;whiteSpace=wrap;html=1;" parent="1" vertex="1">
          <mxGeometry x="510" y="200" width="120" height="80" as="geometry" />
        </mxCell>
        <mxCell id="G0P9026Q1GZ-u4EoMVOc-7" value="отвечать на&lt;br&gt;телефонные звонки" style="ellipse;whiteSpace=wrap;html=1;" parent="1" vertex="1">
          <mxGeometry x="530" y="330" width="120" height="80" as="geometry" />
        </mxCell>
        <mxCell id="G0P9026Q1GZ-u4EoMVOc-8" value="оформить заказ" style="ellipse;whiteSpace=wrap;html=1;" parent="1" vertex="1">
          <mxGeometry x="200" y="200" width="120" height="80" as="geometry" />
        </mxCell>
        <mxCell id="G0P9026Q1GZ-u4EoMVOc-9" value="сохранить заказ в БД" style="ellipse;whiteSpace=wrap;html=1;" parent="1" vertex="1">
          <mxGeometry x="279" y="490" width="120" height="80" as="geometry" />
        </mxCell>
        <mxCell id="G0P9026Q1GZ-u4EoMVOc-10" value="проверить&lt;br&gt;наличие клиента&lt;br&gt;в БД" style="ellipse;whiteSpace=wrap;html=1;" parent="1" vertex="1">
          <mxGeometry x="429" y="490" width="120" height="80" as="geometry" />
        </mxCell>
        <mxCell id="G0P9026Q1GZ-u4EoMVOc-19" value="" style="endArrow=classic;html=1;rounded=0;" parent="1" target="G0P9026Q1GZ-u4EoMVOc-6" edge="1">
          <mxGeometry width="50" height="50" relative="1" as="geometry">
            <mxPoint x="430" y="350" as="sourcePoint" />
            <mxPoint x="490" y="320" as="targetPoint" />
          </mxGeometry>
        </mxCell>
        <mxCell id="G0P9026Q1GZ-u4EoMVOc-21" value="" style="endArrow=classic;html=1;rounded=0;" parent="1" target="G0P9026Q1GZ-u4EoMVOc-5" edge="1">
          <mxGeometry width="50" height="50" relative="1" as="geometry">
            <mxPoint x="410" y="80" as="sourcePoint" />
            <mxPoint x="460" y="30" as="targetPoint" />
          </mxGeometry>
        </mxCell>
        <mxCell id="G0P9026Q1GZ-u4EoMVOc-23" value="" style="endArrow=classic;html=1;rounded=0;entryX=0.5;entryY=0;entryDx=0;entryDy=0;" parent="1" target="G0P9026Q1GZ-u4EoMVOc-9" edge="1">
          <mxGeometry width="50" height="50" relative="1" as="geometry">
            <mxPoint x="390" y="420" as="sourcePoint" />
            <mxPoint x="450" y="360" as="targetPoint" />
          </mxGeometry>
        </mxCell>
        <mxCell id="G0P9026Q1GZ-u4EoMVOc-24" value="" style="endArrow=classic;html=1;rounded=0;entryX=0.5;entryY=0;entryDx=0;entryDy=0;" parent="1" target="G0P9026Q1GZ-u4EoMVOc-10" edge="1">
          <mxGeometry width="50" height="50" relative="1" as="geometry">
            <mxPoint x="440" y="420" as="sourcePoint" />
            <mxPoint x="480" y="360" as="targetPoint" />
          </mxGeometry>
        </mxCell>
        <mxCell id="G0P9026Q1GZ-u4EoMVOc-25" value="" style="endArrow=classic;html=1;rounded=0;exitX=0.5;exitY=1;exitDx=0;exitDy=0;" parent="1" edge="1" source="G0P9026Q1GZ-u4EoMVOc-9">
          <mxGeometry width="50" height="50" relative="1" as="geometry">
            <mxPoint x="280" y="570" as="sourcePoint" />
            <mxPoint x="390" y="660" as="targetPoint" />
          </mxGeometry>
        </mxCell>
        <mxCell id="G0P9026Q1GZ-u4EoMVOc-26" value="" style="endArrow=classic;html=1;rounded=0;exitX=0.5;exitY=1;exitDx=0;exitDy=0;" parent="1" edge="1" source="G0P9026Q1GZ-u4EoMVOc-10">
          <mxGeometry width="50" height="50" relative="1" as="geometry">
            <mxPoint x="540" y="570" as="sourcePoint" />
            <mxPoint x="430" y="660" as="targetPoint" />
          </mxGeometry>
        </mxCell>
        <mxCell id="G0P9026Q1GZ-u4EoMVOc-27" value="" style="endArrow=classic;html=1;rounded=0;" parent="1" target="G0P9026Q1GZ-u4EoMVOc-8" edge="1">
          <mxGeometry width="50" height="50" relative="1" as="geometry">
            <mxPoint x="400" y="350" as="sourcePoint" />
            <mxPoint x="450" y="320" as="targetPoint" />
          </mxGeometry>
        </mxCell>
        <mxCell id="m_pFpbRguC6Rv8a73P7a-2" value="" style="endArrow=classic;html=1;rounded=0;exitX=0.5;exitY=1;exitDx=0;exitDy=0;" edge="1" parent="1" source="G0P9026Q1GZ-u4EoMVOc-5">
          <mxGeometry width="50" height="50" relative="1" as="geometry">
            <mxPoint x="370" y="350" as="sourcePoint" />
            <mxPoint x="414" y="340" as="targetPoint" />
          </mxGeometry>
        </mxCell>
        <mxCell id="m_pFpbRguC6Rv8a73P7a-3" value="" style="endArrow=classic;html=1;rounded=0;entryX=1;entryY=0.5;entryDx=0;entryDy=0;" edge="1" parent="1" target="G0P9026Q1GZ-u4EoMVOc-4">
          <mxGeometry width="50" height="50" relative="1" as="geometry">
            <mxPoint x="390" y="370" as="sourcePoint" />
            <mxPoint x="390" y="290" as="targetPoint" />
          </mxGeometry>
        </mxCell>
        <mxCell id="m_pFpbRguC6Rv8a73P7a-4" value="" style="endArrow=classic;html=1;rounded=0;entryX=0;entryY=0.5;entryDx=0;entryDy=0;" edge="1" parent="1" target="G0P9026Q1GZ-u4EoMVOc-7">
          <mxGeometry width="50" height="50" relative="1" as="geometry">
            <mxPoint x="440" y="370" as="sourcePoint" />
            <mxPoint x="440" y="310" as="targetPoint" />
          </mxGeometry>
        </mxCell>
      </root>
    </mxGraphModel>
  </diagram>
</mxfile>
